<?xml version="1.0" encoding="utf-8"?>
<!-- Generator: Adobe Illustrator 17.0.1, SVG Export Plug-In . SVG Version: 6.00 Build 0)  -->
<!DOCTYPE svg PUBLIC "-//W3C//DTD SVG 1.1//EN" "http://www.w3.org/Graphics/SVG/1.1/DTD/svg11.dtd">
<svg version="1.1" xmlns="http://www.w3.org/2000/svg" xmlns:xlink="http://www.w3.org/1999/xlink" x="0px" y="0px"
	 width="1051.24px" height="1053.463px" viewBox="0 0 1051.24 1053.463" enable-background="new 0 0 1051.24 1053.463"
	 xml:space="preserve">
<g id="CF">
	<linearGradient id="SVGID_1_" gradientUnits="userSpaceOnUse" x1="155.6273" y1="527.6256" x2="492.478" y2="527.6256">
		<stop  offset="0" style="stop-color:#EF7A0F"/>
		<stop  offset="0.0983" style="stop-color:#E75F17"/>
		<stop  offset="0.2069" style="stop-color:#E0471A"/>
		<stop  offset="0.3296" style="stop-color:#DC341B"/>
		<stop  offset="0.4722" style="stop-color:#D9251C"/>
		<stop  offset="0.6531" style="stop-color:#D7191C"/>
		<stop  offset="1" style="stop-color:#D6151C"/>
	</linearGradient>
	<path fill="url(#SVGID_1_)" d="M490.406,800.208C346.315,776.725,251.033,667.294,249.669,527.91
		c-1.285-131.315,99.923-257.607,242.809-273.194v-95.282c-187.292,17.06-336.013,175-336.847,365.973
		c-0.841,192.459,147.202,352.758,334.775,370.41V800.208z"/>
	<linearGradient id="SVGID_2_" gradientUnits="userSpaceOnUse" x1="493.0016" y1="527.7495" x2="895.2916" y2="527.7495">
		<stop  offset="0" style="stop-color:#EF7A0F"/>
		<stop  offset="0.0983" style="stop-color:#E75F17"/>
		<stop  offset="0.2069" style="stop-color:#E0471A"/>
		<stop  offset="0.3296" style="stop-color:#DC341B"/>
		<stop  offset="0.4722" style="stop-color:#D9251C"/>
		<stop  offset="0.6531" style="stop-color:#D7191C"/>
		<stop  offset="1" style="stop-color:#D6151C"/>
	</linearGradient>
	<path fill="url(#SVGID_2_)" d="M573.292,161.014v95.223h95.514c3.326,0,6.022,2.783,6.022,6.216v80.814
		c0,3.433-2.696,6.217-6.022,6.217H493.002c0,44.524,0,89.079,0,133.655h112.572c2.2,0,3.982,2.783,3.982,6.216v80.814
		c0,3.433-1.783,6.216-3.982,6.216H493.002c0,74.046,0,148.221,0,222.758h78.219v95.34
		c181.18-22.936,323.253-177.977,324.068-364.519C896.11,341.953,754.723,184.593,573.292,161.014z"/>
</g>
<g id="Ray">
	<linearGradient id="SVGID_3_" gradientUnits="userSpaceOnUse" x1="125.0072" y1="200.4872" x2="269.0134" y2="200.4872">
		<stop  offset="0" style="stop-color:#EF7A0F"/>
		<stop  offset="0.0983" style="stop-color:#E75F17"/>
		<stop  offset="0.2069" style="stop-color:#E0471A"/>
		<stop  offset="0.3296" style="stop-color:#DC341B"/>
		<stop  offset="0.4722" style="stop-color:#D9251C"/>
		<stop  offset="0.6531" style="stop-color:#D7191C"/>
		<stop  offset="1" style="stop-color:#D6151C"/>
	</linearGradient>
	<path fill="url(#SVGID_3_)" d="M208.589,272.697c-27.608-28.146-55.859-56.949-83.581-85.212
		c19.348-19.028,40.203-39.538,60.202-59.207c26.344,27.092,54.99,56.55,83.804,86.183
		C251.044,231.779,230.516,251.563,208.589,272.697z"/>
	<linearGradient id="SVGID_4_" gradientUnits="userSpaceOnUse" x1="782.9218" y1="196.5893" x2="923.2225" y2="196.5893">
		<stop  offset="0" style="stop-color:#EF7A0F"/>
		<stop  offset="0.0983" style="stop-color:#E75F17"/>
		<stop  offset="0.2069" style="stop-color:#E0471A"/>
		<stop  offset="0.3296" style="stop-color:#DC341B"/>
		<stop  offset="0.4722" style="stop-color:#D9251C"/>
		<stop  offset="0.6531" style="stop-color:#D7191C"/>
		<stop  offset="1" style="stop-color:#D6151C"/>
	</linearGradient>
	<path fill="url(#SVGID_4_)" d="M782.922,211.855c27.726-28.279,55.975-57.091,84.423-86.106
		c18.976,19.659,38.78,40.176,55.877,57.889c-27.323,27.016-56.465,55.831-84.745,83.793
		C823.004,251.952,802.325,231.265,782.922,211.855z"/>
	<linearGradient id="SVGID_5_" gradientUnits="userSpaceOnUse" x1="124.868" y1="854.6973" x2="265.0065" y2="854.6973">
		<stop  offset="0" style="stop-color:#EF7A0F"/>
		<stop  offset="0.0983" style="stop-color:#E75F17"/>
		<stop  offset="0.2069" style="stop-color:#E0471A"/>
		<stop  offset="0.3296" style="stop-color:#DC341B"/>
		<stop  offset="0.4722" style="stop-color:#D9251C"/>
		<stop  offset="0.6531" style="stop-color:#D7191C"/>
		<stop  offset="1" style="stop-color:#D6151C"/>
	</linearGradient>
	<path fill="url(#SVGID_5_)" d="M182.641,926.274c-18.428-18.481-38.559-38.67-57.773-57.941
		c27.691-27.216,56.467-55.499,86.698-85.212c16.774,19.25,36.032,41.352,53.44,61.331
		C240.318,868.977,211.166,897.937,182.641,926.274z"/>
	<linearGradient id="SVGID_6_" gradientUnits="userSpaceOnUse" x1="781.8244" y1="858.2193" x2="925.4895" y2="858.2193">
		<stop  offset="0" style="stop-color:#EF7A0F"/>
		<stop  offset="0.0983" style="stop-color:#E75F17"/>
		<stop  offset="0.2069" style="stop-color:#E0471A"/>
		<stop  offset="0.3296" style="stop-color:#DC341B"/>
		<stop  offset="0.4722" style="stop-color:#D9251C"/>
		<stop  offset="0.6531" style="stop-color:#D7191C"/>
		<stop  offset="1" style="stop-color:#D6151C"/>
	</linearGradient>
	<path fill="url(#SVGID_6_)" d="M866.29,930.736c-28.293-29.687-56.133-58.899-84.465-88.627
		c18.628-17.374,40.029-37.335,60.476-56.406c25.614,26.401,54.228,55.894,83.189,85.744
		C907.666,889.297,887.007,909.987,866.29,930.736z"/>
	<linearGradient id="SVGID_7_" gradientUnits="userSpaceOnUse" x1="486.54" y1="61.9823" x2="576.853" y2="61.9823">
		<stop  offset="0" style="stop-color:#EF7A0F"/>
		<stop  offset="0.0983" style="stop-color:#E75F17"/>
		<stop  offset="0.2069" style="stop-color:#E0471A"/>
		<stop  offset="0.3296" style="stop-color:#DC341B"/>
		<stop  offset="0.4722" style="stop-color:#D9251C"/>
		<stop  offset="0.6531" style="stop-color:#D7191C"/>
		<stop  offset="1" style="stop-color:#D6151C"/>
	</linearGradient>
	<path fill="url(#SVGID_7_)" d="M576.853,123.965c-31.24,0-59.753,0-90.313,0c0-41.37,0-81.493,0-123.965
		c29.882,0,59.068,0,90.313,0C576.853,40.786,576.853,80.968,576.853,123.965z"/>
	<linearGradient id="SVGID_8_" gradientUnits="userSpaceOnUse" x1="0" y1="528.1155" x2="122.9204" y2="528.1155">
		<stop  offset="0" style="stop-color:#EF7A0F"/>
		<stop  offset="0.0983" style="stop-color:#E75F17"/>
		<stop  offset="0.2069" style="stop-color:#E0471A"/>
		<stop  offset="0.3296" style="stop-color:#DC341B"/>
		<stop  offset="0.4722" style="stop-color:#D9251C"/>
		<stop  offset="0.6531" style="stop-color:#D7191C"/>
		<stop  offset="1" style="stop-color:#D6151C"/>
	</linearGradient>
	<path fill="url(#SVGID_8_)" d="M122.92,573.599c-41.657,0-81.051,0-122.92,0c0-30.41,0-59.593,0-90.967c40.336,0,80.526,0,122.92,0
		C122.92,512.043,122.92,541.244,122.92,573.599z"/>
	<linearGradient id="SVGID_9_" gradientUnits="userSpaceOnUse" x1="927.7104" y1="527.9065" x2="1051.2401" y2="527.9065">
		<stop  offset="0" style="stop-color:#EF7A0F"/>
		<stop  offset="0.0983" style="stop-color:#E75F17"/>
		<stop  offset="0.2069" style="stop-color:#E0471A"/>
		<stop  offset="0.3296" style="stop-color:#DC341B"/>
		<stop  offset="0.4722" style="stop-color:#D9251C"/>
		<stop  offset="0.6531" style="stop-color:#D7191C"/>
		<stop  offset="1" style="stop-color:#D6151C"/>
	</linearGradient>
	<path fill="url(#SVGID_9_)" d="M1051.24,573.406c-42.925,0-82.295,0-123.53,0c0-30.659,0-59.865,0-90.999
		c41.091,0,81.221,0,123.53,0C1051.24,512.692,1051.24,541.874,1051.24,573.406z"/>
	<linearGradient id="SVGID_10_" gradientUnits="userSpaceOnUse" x1="492.5959" y1="991.4714" x2="583.1682" y2="991.4714">
		<stop  offset="0" style="stop-color:#EF7A0F"/>
		<stop  offset="0.0983" style="stop-color:#E75F17"/>
		<stop  offset="0.2069" style="stop-color:#E0471A"/>
		<stop  offset="0.3296" style="stop-color:#DC341B"/>
		<stop  offset="0.4722" style="stop-color:#D9251C"/>
		<stop  offset="0.6531" style="stop-color:#D7191C"/>
		<stop  offset="1" style="stop-color:#D6151C"/>
	</linearGradient>
	<path fill="url(#SVGID_10_)" d="M492.596,929.48c31.65,0,60.168,0,90.572,0c0,41.542,0,81.672,0,123.982
		c-30.274,0-59.462,0-90.572,0C492.596,1012.187,492.596,972.018,492.596,929.48z"/>
</g>
</svg>
